<?xml version="1.0" encoding="UTF-8"?>
<svg version="1.1" xmlns="http://www.w3.org/2000/svg" width="400" height="400">
<path d="M0 0 C132 0 264 0 400 0 C400 132 400 264 400 400 C268 400 136 400 0 400 C0 268 0 136 0 0 Z " fill="#FDFDFD" transform="translate(0,0)"/>
<path d="M0 0 C0 1.65 0 3.3 0 5 C4.2599227 5.26624517 6.55173358 5.18874375 10.5625 3.5 C18.21551525 0.33994869 27.40992476 1.10469774 35 4 C35 4.66 35 5.32 35 6 C29.06 6.33 23.12 6.66 17 7 C17.16113281 8.93101562 17.32226562 10.86203125 17.48828125 12.8515625 C18.06083617 20.90381274 18.18613734 28.92695016 18.18530273 36.99755859 C18.18751671 39.39307749 18.20583786 41.78815404 18.22460938 44.18359375 C18.2275399 45.73437346 18.22952698 47.28515531 18.23046875 48.8359375 C18.23765427 49.53818451 18.24483978 50.24043152 18.25224304 50.96395874 C18.20961541 60.31566649 15.56728713 69.82366385 9.4375 77 C5.40579039 80.30806943 2.07094848 80.18781291 -3 80 C-4 79 -4 79 -4.0625 75.9375 C-4.041875 74.968125 -4.02125 73.99875 -4 73 C-2.4221875 73.185625 -2.4221875 73.185625 -0.8125 73.375 C3.07626605 73.35299977 3.07626605 73.35299977 5.625 70.8125 C14.85758947 57.51390258 15.21709211 40.67340407 13.23144531 25.10302734 C12.8765549 21.87831632 12.90603506 18.67838873 12.9375 15.4375 C12.94652344 14.21933594 12.95554687 13.00117188 12.96484375 11.74609375 C12.97644531 10.83988281 12.98804688 9.93367187 13 9 C11.66195312 9.50466797 11.66195312 9.50466797 10.296875 10.01953125 C7.16798949 10.95004104 5.41895201 11.14098796 2.25 10.6875 C1.49203125 10.58824219 0.7340625 10.48898438 -0.046875 10.38671875 C-2 10 -2 10 -4 9 C-5.8742063 13.05692392 -6.39146194 16.69253339 -6.8125 21.125 C-7.34629561 25.92104635 -8.20114966 29.99379949 -10.4375 34.3125 C-13.65896488 40.60338421 -14.43063281 47.14090885 -15.421875 54.05859375 C-16 58 -16 58 -16.51635742 60.00317383 C-17.32997147 63.36236077 -17.37710445 66.80954488 -17.5625 70.25 C-17.62727539 71.36761719 -17.62727539 71.36761719 -17.69335938 72.5078125 C-17.79896725 74.338349 -17.89994201 76.16915176 -18 78 C-18.66 78 -19.32 78 -20 78 C-20.73699176 74.65332639 -21.15660144 71.47364391 -21.28125 68.05078125 C-21.33732422 66.65375977 -21.33732422 66.65375977 -21.39453125 65.22851562 C-21.44673828 63.78508789 -21.44673828 63.78508789 -21.5 62.3125 C-21.63925002 58.53985606 -21.79953564 54.76991702 -22 51 C-22.04898438 50.07751465 -22.09796875 49.1550293 -22.1484375 48.20458984 C-22.24511719 46.8870874 -22.24511719 46.8870874 -22.34375 45.54296875 C-22.42399414 44.37350708 -22.42399414 44.37350708 -22.50585938 43.18041992 C-23.10341502 40.5436761 -24.3841433 39.13495845 -26 37 C-25.98066406 35.90816406 -25.96132812 34.81632812 -25.94140625 33.69140625 C-26.01226931 29.22703324 -27.58470167 26.56925537 -29.9375 22.9375 C-32.64621035 18.68496511 -34.50965727 15.11357418 -35 10 C-35.66 10 -36.32 10 -37 10 C-37 10.66 -37 11.32 -37 12 C-37.66 12 -38.32 12 -39 12 C-39.23976563 12.55816406 -39.47953125 13.11632812 -39.7265625 13.69140625 C-41.27704087 16.50224281 -43.19281874 18.5849491 -45.375 20.9375 C-46.92641727 22.61604009 -48.46821006 24.30352957 -50 26 C-51.16402344 27.23943359 -51.16402344 27.23943359 -52.3515625 28.50390625 C-54.24681481 30.85805579 -54.24681481 30.85805579 -53.94140625 33.5625 C-52.92221766 36.20139495 -51.77544615 37.85642727 -49.9375 40 C-46.06233029 44.75407418 -42.93387121 49.8306996 -39.796875 55.08203125 C-38.30405342 57.50624368 -36.75512509 59.76275722 -35 62 C-35.33 62.66 -35.66 63.32 -36 64 C-48 50.89320388 -48 50.89320388 -48 47 C-48.5775 46.7525 -49.155 46.505 -49.75 46.25 C-52.29879381 44.83400344 -53.94723215 43.05276785 -56 41 C-56.99 40.67 -57.98 40.34 -59 40 C-58.98839844 40.72445312 -58.97679688 41.44890625 -58.96484375 42.1953125 C-58.95130859 43.64550781 -58.95130859 43.64550781 -58.9375 45.125 C-58.92589844 46.07632813 -58.91429688 47.02765625 -58.90234375 48.0078125 C-59.00310898 51.09525915 -59.48755969 53.95550167 -60 57 C-60.24887876 59.78840861 -60.40834198 62.5799381 -60.5625 65.375 C-60.60568359 66.11105469 -60.64886719 66.84710938 -60.69335938 67.60546875 C-60.79843799 69.40348068 -60.89962093 71.20171958 -61 73 C-64.07873479 69.92126521 -64.11377893 66.76045226 -64.29711914 62.54199219 C-64.33708511 61.66718201 -64.37705109 60.79237183 -64.41822815 59.89105225 C-64.47610756 58.48318451 -64.47610756 58.48318451 -64.53515625 57.046875 C-64.57813339 56.07268616 -64.62111053 55.09849731 -64.66539001 54.0947876 C-64.75550421 52.03381573 -64.84363586 49.97275637 -64.92993164 47.91162109 C-65.06143057 44.77550471 -65.19911869 41.63970836 -65.33789062 38.50390625 C-65.42484594 36.49741169 -65.51144589 34.4909017 -65.59765625 32.484375 C-65.63826675 31.55389343 -65.67887726 30.62341187 -65.72071838 29.66473389 C-65.82669615 27.11007673 -65.91724404 24.55550412 -66 22 C-66.04699539 20.8321698 -66.04699539 20.8321698 -66.09494019 19.64074707 C-66.14274385 17.76083944 -66.0813 15.87875709 -66 14 C-65.34 13.34 -64.68 12.68 -64 12 C-60.70285207 12.32971479 -59.3773161 12.6226839 -57 15 C-56.77395114 19.59632677 -57.01876415 23.50201488 -58 28 C-52.67778652 23.57233779 -52.67778652 23.57233779 -48 18.5 C-44.33332048 13.9166506 -39.98661672 9.01558676 -34 8 C-34 7.34 -34 6.68 -34 6 C-27.65695843 6.36594471 -27.65695843 6.36594471 -24.87109375 9.0546875 C-22.63112389 12.58065258 -21.92650464 15.88054907 -21.3125 19.9375 C-21.13750977 20.97293945 -21.13750977 20.97293945 -20.95898438 22.02929688 C-20.62545964 24.01725502 -20.31233699 26.00860302 -20 28 C-19.66775151 30.0001805 -19.33485569 32.00025432 -19 34 C-18.01 34 -17.02 34 -16 34 C-15.67128906 32.25976562 -15.67128906 32.25976562 -15.3359375 30.484375 C-9.26913501 0 -9.26913501 0 0 0 Z " fill="#121212" transform="translate(133,151)"/>
<path d="M0 0 C0.99 0 1.98 0 3 0 C8.09797634 9.71043112 10.58394875 19.61128739 12.625 30.3125 C12.76035156 31.01890625 12.89570313 31.7253125 13.03515625 32.453125 C13.57459716 35.35053442 14 38.0456576 14 41 C15.423125 40.9690625 15.423125 40.9690625 16.875 40.9375 C20 41 20 41 22 42 C22 42.66 22 43.32 22 44 C20.02 44.66 18.04 45.32 16 46 C16.43585463 47.77123903 16.87380275 49.54196289 17.3125 51.3125 C17.58191406 52.40175781 17.85132813 53.49101562 18.12890625 54.61328125 C19.16678821 58.64845462 20.33665454 62.63839143 21.546875 66.625 C22.02669886 69.13993886 21.82160093 70.6018135 21 73 C17.83541256 69.83541256 17.22192166 65.43117919 16.03125 61.20507812 C14.59317668 56.33110179 12.84224832 52.23614787 10 48 C6.87311572 46.94824448 6.87311572 46.94824448 4 47 C3.731875 47.598125 3.46375 48.19625 3.1875 48.8125 C2.00082594 50.99847854 0.90400887 52.41332594 -1 54 C-1.66 54 -2.32 54 -3 54 C-3.03738281 55.18078125 -3.07476562 56.3615625 -3.11328125 57.578125 C-3.17895149 59.13544788 -3.24539847 60.69273814 -3.3125 62.25 C-3.34633789 63.41595703 -3.34633789 63.41595703 -3.38085938 64.60546875 C-3.58460956 68.93979093 -3.77175624 71.78041105 -7 75 C-8.65 74.67 -10.3 74.34 -12 74 C-12.37783744 66.56919697 -12.37783744 66.56919697 -10.48828125 63.72265625 C-8.23842178 59.60677161 -8.86012838 55.59140297 -9.1171875 51.05859375 C-9.26688391 46.69244846 -8.67340137 44.04395568 -6.73486328 40.04052734 C-5.10469752 35.51397404 -5.20952134 30.51466854 -4.9375 25.75 C-4.80876484 23.59846577 -4.67239576 21.4473708 -4.52734375 19.296875 C-4.47312256 18.35166992 -4.41890137 17.40646484 -4.36303711 16.43261719 C-4 14 -4 14 -2 11 C-1.83320465 8.77882568 -1.83320465 8.77882568 -2 6.4375 C-2.125 4.05859375 -2.125 4.05859375 -2 2 C-1.34 1.34 -0.68 0.68 0 0 Z " fill="#171717" transform="translate(302,154)"/>
<path d="M0 0 C2.875 -0.125 2.875 -0.125 6 0 C8 2 8 2 8.3125 4.9375 C8 8 8 8 6.6875 9.8125 C5 11 5 11 2 12 C-3.43312432 18.99582897 -2.91457197 28.64573685 -2 37 C-0.97326213 39.92974339 0.04658704 41.5582338 2 44 C3.65 44 5.3 44 7 44 C9.7533745 37.36240077 10.89535424 31.18579172 10 24 C8.61114752 21.18219466 8.61114752 21.18219466 7 19 C6.8125 16.1875 6.8125 16.1875 7 14 C11.75 14.875 11.75 14.875 14 16 C17.51149021 23.52702208 19.69190946 33.95385304 17 42 C11.64157706 51.45280765 11.64157706 51.45280765 7 53 C3.63442572 53.45305808 1.13079195 53.66100573 -1.87109375 51.90625 C-7.03917468 47.72732865 -10.87180929 42.69563783 -11.71484375 35.984375 C-11.81297786 34.57437757 -11.88658929 33.16249111 -11.9375 31.75 C-11.97270752 31.00854736 -12.00791504 30.26709473 -12.04418945 29.50317383 C-12.26409339 21.9152527 -10.91327489 14.60189181 -7 8 C-5.989375 7.34 -4.97875 6.68 -3.9375 6 C-0.88208269 4.32556978 -0.88208269 4.32556978 -0.125 1.75 C-0.08375 1.1725 -0.0425 0.595 0 0 Z " fill="#111111" transform="translate(342,165)"/>
<path d="M0 0 C0.66 0 1.32 0 2 0 C1.43042783 3.64782177 0.43294408 6.21134087 -1.4375 9.375 C-4.32349928 14.88313577 -4.86939099 20.14368146 -5.34765625 26.2890625 C-5.91276135 29.50373226 -6.45120175 31.09234926 -7.953125 33.84765625 C-10.38080443 38.36676535 -11.04550758 42.76714852 -11.6875 47.8125 C-11.91854198 49.48595874 -12.1515321 51.15914997 -12.38671875 52.83203125 C-12.48170654 53.56139893 -12.57669434 54.2907666 -12.67456055 55.04223633 C-13 57 -13 57 -14 60 C-14.14492123 61.40664926 -14.24628931 62.8181133 -14.31640625 64.23046875 C-14.35830078 65.03291016 -14.40019531 65.83535156 -14.44335938 66.66210938 C-14.48267578 67.49548828 -14.52199219 68.32886719 -14.5625 69.1875 C-14.60568359 70.03248047 -14.64886719 70.87746094 -14.69335938 71.74804688 C-14.79931518 73.83184433 -14.9001502 75.91590103 -15 78 C-15.66 78 -16.32 78 -17 78 C-17.9644355 75.10669349 -18.14973281 73.14756474 -18.2109375 70.1328125 C-18.23728271 69.17012451 -18.26362793 68.20743652 -18.29077148 67.21557617 C-18.3324646 65.68574097 -18.3324646 65.68574097 -18.375 64.125 C-18.23591633 49.56315587 -18.23591633 49.56315587 -24 37 C-23.9484375 35.79601562 -23.896875 34.59203125 -23.84375 33.3515625 C-23.71712727 28.34318122 -25.72303021 25.39451783 -28.5 21.375 C-33.84510433 13.54193419 -33.84510433 13.54193419 -33 8 C-31 6 -31 6 -28.6875 5.5625 C-26 6 -26 6 -23.25 7.8125 C-20.47266148 11.7470629 -20.52423442 14.30109909 -20.30078125 19 C-19.8093135 23.90191215 -18.32669557 28.6514862 -16 33 C-14.515 33.495 -14.515 33.495 -13 34 C-12.87625 33.030625 -12.7525 32.06125 -12.625 31.0625 C-12.42215573 29.70750024 -12.21342622 28.35337334 -12 27 C-11.90074219 26.33613281 -11.80148438 25.67226562 -11.69921875 24.98828125 C-10.05862506 16.02301675 -6.18268058 6.75839578 0 0 Z " fill="#101010" transform="translate(255,151)"/>
<path d="M0 0 C1.9375 0.75 1.9375 0.75 3.9375 2.75 C4.125 6.3125 4.125 6.3125 3.9375 9.75 C3.6075 10.08 3.2775 10.41 2.9375 10.75 C2.42116114 13.3534676 1.97120092 15.94129691 1.5625 18.5625 C1.43311035 19.38258545 1.3037207 20.2026709 1.17041016 21.04760742 C-0.19751382 30.07442057 -1.13697718 39.14638 -2.06005859 48.2277832 C-2.17687988 49.37593506 -2.29370117 50.52408691 -2.4140625 51.70703125 C-2.56609131 53.23807495 -2.56609131 53.23807495 -2.72119141 54.80004883 C-3.06888866 57.80521759 -3.54046038 60.77060174 -4.0625 63.75 C-1.64336872 63.49424607 0.77160539 63.22106619 3.1875 62.9375 C3.86941406 62.86724609 4.55132812 62.79699219 5.25390625 62.72460938 C9.41121007 62.22008221 11.71931464 61.34875588 14.9375 58.75 C16.2575 58.75 17.5775 58.75 18.9375 58.75 C20.54475635 61.96451269 19.99498185 65.18612536 19.9375 68.75 C17.23849537 70.43687789 14.98734599 70.91237549 11.875 71.1875 C8.04934757 71.3224884 8.04934757 71.3224884 6.47265625 73.26953125 C4.9375 74.75 4.9375 74.75 2.78125 75.078125 C2.0078125 75.05234375 1.234375 75.0265625 0.4375 75 C-0.3359375 74.98453125 -1.109375 74.9690625 -1.90625 74.953125 C-4.0625 74.75 -4.0625 74.75 -7.0625 73.75 C-7.09010015 71.93759041 -7.10915998 70.12505052 -7.125 68.3125 C-7.13660156 67.30316406 -7.14820313 66.29382813 -7.16015625 65.25390625 C-7.08833154 62.67683548 -6.9015632 60.31814709 -6.56958008 57.77880859 C-5.92408458 52.1158227 -5.89068121 46.47957188 -5.8515625 40.78515625 C-5.82353419 38.4993413 -5.79487012 36.21353408 -5.765625 33.92773438 C-5.72413554 30.35050347 -5.6872151 26.7734235 -5.66113281 23.19604492 C-5.63368422 19.72545393 -5.58786665 16.25550353 -5.5390625 12.78515625 C-5.53580963 11.70814957 -5.53255676 10.63114288 -5.52920532 9.52149963 C-5.51263885 8.52964157 -5.49607239 7.53778351 -5.47900391 6.51586914 C-5.47091705 5.64144669 -5.4628302 4.76702423 -5.45449829 3.86610413 C-5.32513885 3.16778976 -5.19577942 2.4694754 -5.0625 1.75 C-2.0625 -0.25 -2.0625 -0.25 0 0 Z " fill="#121212" transform="translate(202.0625,150.25)"/>
<path d="M0 0 C2 3 2 3 1.625 5.6875 C1.315625 6.8321875 1.315625 6.8321875 1 8 C0.41992188 7.979375 -0.16015625 7.95875 -0.7578125 7.9375 C-4.38855753 8.03336125 -7.02367068 8.14466876 -9.828125 10.6015625 C-15.34155352 17.81357253 -17.51831747 24.28660805 -17.4375 33.25 C-17.45748047 34.05179688 -17.47746094 34.85359375 -17.49804688 35.6796875 C-17.57762715 40.29886929 -17.57762715 40.29886929 -15.14453125 44.03515625 C-12.6065342 45.17702378 -10.75375872 45.22947989 -8 45 C-6.5024482 42.0048964 -6.39341331 38.78868937 -6 35.5 C-5.13513514 28.27027027 -5.13513514 28.27027027 -4 26 C-2.68 26.33 -1.36 26.66 0 27 C1.54184758 32.51819134 2.32007084 37.50320458 2.4140625 43.21875 C2.43342865 43.96209595 2.4527948 44.70544189 2.4727478 45.47131348 C2.5318819 47.81409723 2.57865996 50.15693192 2.625 52.5 C2.66324094 54.10158233 2.70229609 55.70314543 2.7421875 57.3046875 C2.83752752 61.20296637 2.92179794 65.10134122 3 69 C2.01 69 1.02 69 0 69 C-1.65 62.4 -3.3 55.8 -5 49 C-6.485 49.495 -6.485 49.495 -8 50 C-11.375 50.375 -11.375 50.375 -15 50 C-17.63016161 47.8272578 -19.47336894 46.05326212 -21 43 C-21.29866205 38.98557009 -21.27822213 34.96172212 -21.3125 30.9375 C-21.34150391 29.82955078 -21.37050781 28.72160156 -21.40039062 27.58007812 C-21.47470292 17.91376349 -18.94357376 9.07747187 -12 2 C-8.14624926 -0.56916716 -4.44778841 -1.77911537 0 0 Z " fill="#1F1F1F" transform="translate(280,161)"/>
<path d="M0 0 C0.66 0 1.32 0 2 0 C2 3.63 2 7.26 2 11 C4.475 11.99 4.475 11.99 7 13 C7.66 13.66 8.32 14.32 9 15 C13.71936344 15.78656057 18.20905576 16.11977361 23 16 C22.67 16.53625 22.34 17.0725 22 17.625 C19.80584397 22.83612057 21.19628597 26.88816661 23.1953125 31.84765625 C25.07997493 36.88867081 26.65588252 41.74848686 25 47 C21.83541256 43.83541256 21.22192166 39.43117919 20.03125 35.20507812 C18.59317668 30.33110179 16.84224832 26.23614787 14 22 C10.87311572 20.94824448 10.87311572 20.94824448 8 21 C7.731875 21.598125 7.46375 22.19625 7.1875 22.8125 C6.00082594 24.99847854 4.90400887 26.41332594 3 28 C2.34 28 1.68 28 1 28 C0.96261719 29.18078125 0.92523438 30.3615625 0.88671875 31.578125 C0.82104851 33.13544788 0.75460153 34.69273814 0.6875 36.25 C0.65366211 37.41595703 0.65366211 37.41595703 0.61914062 38.60546875 C0.41539044 42.93979093 0.22824376 45.78041105 -3 49 C-4.65 48.67 -6.3 48.34 -8 48 C-8.37783744 40.56919697 -8.37783744 40.56919697 -6.48828125 37.72265625 C-4.23842178 33.60677161 -4.86012838 29.59140297 -5.1171875 25.05859375 C-5.29175633 19.96700274 -4.17608439 16.69235071 -2 12 C-1.23753261 8.73556342 -1.23753261 8.73556342 -0.8125 5.5625 C-0.65394531 4.51191406 -0.49539063 3.46132812 -0.33203125 2.37890625 C-0.22246094 1.59386719 -0.11289062 0.80882812 0 0 Z " fill="#0A0A0A" transform="translate(298,180)"/>
<path d="M0 0 C1.32 0 2.64 0 4 0 C4.33 2.97 4.66 5.94 5 9 C7.31 9.33 9.62 9.66 12 10 C12 10.66 12 11.32 12 12 C9.36 12.33 6.72 12.66 4 13 C3.67 27.19 3.34 41.38 3 56 C6.63 56.99 10.26 57.98 14 59 C14 59.99 14 60.98 14 62 C12.72125 62.309375 11.4425 62.61875 10.125 62.9375 C7.89898325 63.47605244 6.05260001 63.9737 4 65 C3.896875 65.804375 3.79375 66.60875 3.6875 67.4375 C3 70 3 70 0.75 71.3125 C-1.96243238 71.9906081 -4.21799033 72.15897198 -7 72 C-8.20776206 68.37671381 -8.40040892 65.80388473 -8 62 C-5.7705435 59.7705435 -3.80147786 58.40073893 -1 57 C-0.67 42.48 -0.34 27.96 0 13 C-6.435 13.495 -6.435 13.495 -13 14 C-12.67 12.35 -12.34 10.7 -12 9 C-8.04 9.33 -4.08 9.66 0 10 C0 6.7 0 3.4 0 0 Z " fill="#1E1E1E" transform="translate(174,155)"/>
<path d="M0 0 C0.33 0.99 0.66 1.98 1 3 C2.65 3 4.3 3 6 3 C4.68 3.33 3.36 3.66 2 4 C2.47550561 5.48034764 2.95551216 6.95925021 3.4375 8.4375 C3.70433594 9.26121094 3.97117187 10.08492187 4.24609375 10.93359375 C4.82155494 12.96219588 4.82155494 12.96219588 6 14 C6.66224567 21.13187644 5.94008546 27.44955053 3 34 C2 35 2 35 -0.25 35.5625 C-3.39141815 34.9199372 -3.90736181 34.46962358 -5.8125 32 C-9.42619553 25.55270829 -8.89407379 18.10331063 -8 11 C-6.82081528 7.30103652 -5.4448167 4.03708216 -3 1 C-2.01 0.67 -1.02 0.34 0 0 Z " fill="#F2F2F2" transform="translate(347,175)"/>
<path d="M0 0 C2 0.8125 2 0.8125 3.1171875 2.53515625 C4.15094028 5.20187249 4.20000489 7.21231415 4.125 10.0625 C4.10695313 10.95453125 4.08890625 11.8465625 4.0703125 12.765625 C4.04710938 13.44109375 4.02390625 14.1165625 4 14.8125 C3.34 14.8125 2.68 14.8125 2 14.8125 C-1 10.42788462 -1 10.42788462 -1 7.8125 C-4.65813817 8.09389524 -7.31896306 8.37593786 -10.4375 10.375 C-12.18250927 13.09721446 -12.86091183 15.26461346 -12.7265625 18.51953125 C-10.93618207 24.16981788 -5.60330568 28.45024114 -1.3125 32.34375 C2.04365027 36.09944197 3.16511652 41.95264144 3.4375 46.875 C2.82524596 52.38528637 0.9447001 56.8677999 -3 60.8125 C-5.1640625 61.0078125 -5.1640625 61.0078125 -7.625 60.9375 C-8.44226562 60.91945312 -9.25953125 60.90140625 -10.1015625 60.8828125 C-10.72804688 60.85960937 -11.35453125 60.83640625 -12 60.8125 C-12 59.8225 -12 58.8325 -12 57.8125 C-10.906875 58.01875 -9.81375 58.225 -8.6875 58.4375 C-4.9161599 59.21596525 -4.9161599 59.21596525 -2 56.8125 C0.59537661 52.03154309 0.74993773 47.53528527 -0.6875 42.31640625 C-2.79631075 36.40294943 -4.92609581 33.43671728 -10 29.8125 C-16.76860271 23.35156105 -16.76860271 23.35156105 -17.3359375 19.578125 C-17.43189 13.39878406 -16.66281023 9.8357826 -13 4.8125 C-10.00120785 2.81330524 -7.40906589 1.90049975 -4 0.8125 C-2 -0.1875 -2 -0.1875 0 0 Z " fill="#191919" transform="translate(54,161.1875)"/>
<path d="M0 0 C0.66 0 1.32 0 2 0 C2.0498487 4.12593843 2.08592957 8.25175752 2.10986328 12.37792969 C2.11985248 13.77835142 2.13344854 15.17875268 2.15087891 16.57910156 C2.2977724 28.69349463 1.65866782 40.37521816 -6.5625 50 C-10.59420961 53.30806943 -13.92905152 53.18781291 -19 53 C-20 52 -20 52 -20.0625 48.9375 C-20.041875 47.968125 -20.02125 46.99875 -20 46 C-18.4221875 46.185625 -18.4221875 46.185625 -16.8125 46.375 C-12.92373395 46.35299977 -12.92373395 46.35299977 -10.375 43.8125 C-1.88691146 31.51457635 -1.8913537 17.72714454 -1.21777344 3.29394531 C-1 1 -1 1 0 0 Z " fill="#0C0C0C" transform="translate(149,178)"/>
<path d="M0 0 C1.60725635 3.21451269 1.05748185 6.43612536 1 10 C-1.69900463 11.68687789 -3.95015401 12.16237549 -7.0625 12.4375 C-10.88815243 12.5724884 -10.88815243 12.5724884 -12.46484375 14.51953125 C-14 16 -14 16 -16.15625 16.328125 C-17.31640625 16.28945312 -17.31640625 16.28945312 -18.5 16.25 C-19.66015625 16.22679687 -19.66015625 16.22679687 -20.84375 16.203125 C-23 16 -23 16 -26 15 C-25.67 12.03 -25.34 9.06 -25 6 C-23.81921875 5.81824219 -22.6384375 5.63648438 -21.421875 5.44921875 C-19.86448627 5.19590854 -18.30719977 4.94196923 -16.75 4.6875 C-15.58404297 4.51057617 -15.58404297 4.51057617 -14.39453125 4.33007812 C-8.99148897 3.42957108 -5.19687507 0 0 0 Z " fill="#0B0B0B" transform="translate(221,209)"/>
<path d="M0 0 C2 3 2 3 1.625 5.6875 C1.315625 6.8321875 1.315625 6.8321875 1 8 C0.41992188 7.979375 -0.16015625 7.95875 -0.7578125 7.9375 C-4.38855753 8.03336125 -7.02367068 8.14466876 -9.828125 10.6015625 C-15.14361118 17.55464796 -17.38583434 24.3545291 -18.1875 32.9375 C-18.26935547 33.71673828 -18.35121094 34.49597656 -18.43554688 35.29882812 C-18.63364171 37.19820797 -18.81823841 39.09898762 -19 41 C-19.33 41 -19.66 41 -20 41 C-20.11703447 36.83357303 -20.18753101 32.6675741 -20.25 28.5 C-20.30027344 26.74042969 -20.30027344 26.74042969 -20.3515625 24.9453125 C-20.45021545 16.16520005 -18.92317665 11.53596377 -14.1875 4.1875 C-10.21433687 0.21433687 -5.46928796 -2.18771519 0 0 Z " fill="#121212" transform="translate(280,161)"/>
<path d="M0 0 C0.33 0 0.66 0 1 0 C1.33 5.28 1.66 10.56 2 16 C5.63 17.32 9.26 18.64 13 20 C13 20.99 13 21.98 13 23 C11.081875 23.4640625 11.081875 23.4640625 9.125 23.9375 C6.89898325 24.47605244 5.05260001 24.9737 3 26 C2.8453125 27.2065625 2.8453125 27.2065625 2.6875 28.4375 C2 31 2 31 -0.25 32.3125 C-2.96243238 32.9906081 -5.21799033 33.15897198 -8 33 C-9.20776206 29.37671381 -9.40040892 26.80388473 -9 23 C-6.02748538 19.86234567 -4.23411568 19.05852892 0 18 C0 12.06 0 6.12 0 0 Z " fill="#0D0D0D" transform="translate(175,194)"/>
<path d="M0 0 C0.66 0 1.32 0 2 0 C3.69233204 4.68702395 4.74249843 9.30222346 5.625 14.1875 C5.7590625 14.89841797 5.893125 15.60933594 6.03125 16.34179688 C6.57172521 19.27304766 7 22.01273112 7 25 C3.18158116 24.46966405 0.80490561 23.68655516 -2 21 C-3.35114217 14.11833522 -1.631006 6.7133372 0 0 Z " fill="#ECECEC" transform="translate(303,170)"/>
<path d="M0 0 C7.0404696 3.32310165 11.29051035 13.53265807 15.15625 20.00390625 C16.64907158 22.42811868 18.19799991 24.68463222 19.953125 26.921875 C19.623125 27.581875 19.293125 28.241875 18.953125 28.921875 C6.953125 15.81507888 6.953125 15.81507888 6.953125 11.921875 C6.086875 11.550625 6.086875 11.550625 5.203125 11.171875 C2.65433119 9.75587844 1.00589285 7.97464285 -1.046875 5.921875 C-2.036875 5.591875 -3.026875 5.261875 -4.046875 4.921875 C-4.046875 8.551875 -4.046875 12.181875 -4.046875 15.921875 C-4.376875 15.921875 -4.706875 15.921875 -5.046875 15.921875 C-5.32260592 13.82092526 -5.56666476 11.71579865 -5.796875 9.609375 C-5.93609375 8.43761719 -6.0753125 7.26585937 -6.21875 6.05859375 C-6.046875 2.921875 -6.046875 2.921875 -4.3125 0.94140625 C-2.046875 -0.078125 -2.046875 -0.078125 0 0 Z " fill="#252525" transform="translate(78.046875,186.078125)"/>
<path d="M0 0 C1.65 0 3.3 0 5 0 C3.68 0.33 2.36 0.66 1 1 C0.67 3.31 0.34 5.62 0 8 C-0.33 6.68 -0.66 5.36 -1 4 C-1.66 4 -2.32 4 -3 4 C-3 4.66 -3 5.32 -3 6 C-3.66 6 -4.32 6 -5 6 C-5.35964844 6.83724609 -5.35964844 6.83724609 -5.7265625 7.69140625 C-7.27704087 10.50224281 -9.19281874 12.5849491 -11.375 14.9375 C-15.22702897 19.10516345 -18.8480688 23.2721032 -22 28 C-22.33 27.01 -22.66 26.02 -23 25 C-23.99 24.34 -24.98 23.68 -26 23 C-25.34 21.68 -24.68 20.36 -24 19 C-24 19.99 -24 20.98 -24 22 C-18.67778652 17.57233779 -18.67778652 17.57233779 -14 12.5 C-10.33332048 7.9166506 -5.98661672 3.01558676 0 2 C0 1.34 0 0.68 0 0 Z " fill="#1E1E1E" transform="translate(99,157)"/>
<path d="M0 0 C0.33 0 0.66 0 1 0 C1.0740324 5.37513189 1.12854569 10.74996854 1.16479492 16.12548828 C1.17990251 17.95496793 1.20038968 19.78441125 1.22631836 21.61376953 C1.26261585 24.23999992 1.27970615 26.86575249 1.29296875 29.4921875 C1.30845261 30.31306854 1.32393646 31.13394958 1.33988953 31.97970581 C1.34057617 34.28466797 1.34057617 34.28466797 1 38 C0.01 38.66 -0.98 39.32 -2 40 C-2.04990593 35.74993401 -2.08595579 31.50002901 -2.10986328 27.24975586 C-2.11984313 25.80766829 -2.13343184 24.36560054 -2.15087891 22.92358398 C-2.24384199 15.0353929 -2.17375461 7.65948967 0 0 Z " fill="#3C3C3C" transform="translate(176,172)"/>
<path d="M0 0 C4.2655031 2.84366874 4.84664166 6.14498484 6 11 C6.96585424 17.15157166 5.29644183 21.87487511 2 27 C0 29 0 29 -2.1640625 29.1953125 C-2.97617187 29.17210937 -3.78828125 29.14890625 -4.625 29.125 C-5.44226562 29.10695312 -6.25953125 29.08890625 -7.1015625 29.0703125 C-7.72804687 29.04710937 -8.35453125 29.02390625 -9 29 C-9 28.01 -9 27.02 -9 26 C-7.3603125 26.309375 -7.3603125 26.309375 -5.6875 26.625 C-1.9161599 27.40346525 -1.9161599 27.40346525 1 25 C3.20372301 20.94051025 3.44179488 17.56521372 3 13 C2.03035387 10.06671903 0.94841006 7.21413231 -0.22265625 4.35546875 C-1 2 -1 2 0 0 Z " fill="#333333" transform="translate(51,193)"/>
<path d="M0 0 C0.33 0 0.66 0 1 0 C1.33 4.95 1.66 9.9 2 15 C2.33 15 2.66 15 3 15 C3.02578125 15.60328125 3.0515625 16.2065625 3.078125 16.828125 C3.37388587 22.06981501 3.37388587 22.06981501 6.0625 26.4375 C6.701875 26.953125 7.34125 27.46875 8 28 C8 28.66 8 29.32 8 30 C9.65 30.33 11.3 30.66 13 31 C13 31.33 13 31.66 13 32 C9.8125 32.3125 9.8125 32.3125 6 32 C3.36983839 29.8272578 1.52663106 28.05326212 0 25 C-0.084915 23.1136088 -0.107193 21.22421485 -0.09765625 19.3359375 C-0.09443359 18.21445313 -0.09121094 17.09296875 -0.08789062 15.9375 C-0.07951172 14.761875 -0.07113281 13.58625 -0.0625 12.375 C-0.05798828 11.19164062 -0.05347656 10.00828125 -0.04882812 8.7890625 C-0.03701467 5.85932493 -0.02054258 2.92968728 0 0 Z " fill="#2A2A2A" transform="translate(259,179)"/>
<path d="M0 0 C0.66 0 1.32 0 2 0 C2.185625 0.825 2.37125 1.65 2.5625 2.5 C4.22457323 6.54678699 6.4325565 8.95512087 9.44140625 12.0703125 C11.0735281 14.09103479 11.58857302 15.46380629 12 18 C8.62510066 16.50176093 6.08483343 14.55365573 3.3125 12.125 C2.52488281 11.44695312 1.73726562 10.76890625 0.92578125 10.0703125 C-1.03844636 7.95866821 -1.62774568 6.81399025 -2 4 C-1.34 4 -0.68 4 0 4 C0 2.68 0 1.36 0 0 Z " fill="#1F1F1F" transform="translate(39,177)"/>
<path d="M0 0 C0.66 0 1.32 0 2 0 C1.40229918 3.75409842 0.3156904 6.69658253 -1.4375 10.0625 C-1.86933594 10.89910156 -2.30117187 11.73570312 -2.74609375 12.59765625 C-3.36677734 13.78681641 -3.36677734 13.78681641 -4 15 C-4.66936982 16.33197833 -5.33703616 17.66482167 -6 19 C-6.33 18.34 -6.66 17.68 -7 17 C-7.33 17.66 -7.66 18.32 -8 19 C-8.66 18.67 -9.32 18.34 -10 18 C-9.0923252 15.93352704 -8.1734483 13.87197257 -7.25 11.8125 C-6.73953125 10.66394531 -6.2290625 9.51539063 -5.703125 8.33203125 C-4.07634235 5.14935785 -2.42590025 2.61819722 0 0 Z " fill="#0F0F0F" transform="translate(255,151)"/>
<path d="M0 0 C2.20805524 -0.0544452 4.41650554 -0.09299283 6.625 -0.125 C7.85476562 -0.14820313 9.08453125 -0.17140625 10.3515625 -0.1953125 C13.94316041 -0.0030428 16.66661175 0.69741444 20 2 C20 2.66 20 3.32 20 4 C11.585 4.495 11.585 4.495 3 5 C7 3 7 3 11 3 C11 2.34 11 1.68 11 1 C7.37 1 3.74 1 0 1 C0 0.67 0 0.34 0 0 Z " fill="#676767" transform="translate(148,153)"/>
<path d="M0 0 C0.33 0 0.66 0 1 0 C1.33 2.97 1.66 5.94 2 9 C2.33 9 2.66 9 3 9 C3 13.95 3 18.9 3 24 C2.34 24 1.68 24 1 24 C-0.29235715 19.08497242 -0.11135517 14.22709898 -0.0625 9.1875 C-0.05798828 8.30384766 -0.05347656 7.42019531 -0.04882812 6.50976562 C-0.03709866 4.33981441 -0.01916495 2.16989828 0 0 Z " fill="#333333" transform="translate(112,205)"/>
<path d="M0 0 C1.65 0 3.3 0 5 0 C3.68 0.33 2.36 0.66 1 1 C0.67 3.31 0.34 5.62 0 8 C-0.33 6.68 -0.66 5.36 -1 4 C-1.66 4 -2.32 4 -3 4 C-3 4.66 -3 5.32 -3 6 C-3.66 6 -4.32 6 -5 6 C-5.2475 6.598125 -5.495 7.19625 -5.75 7.8125 C-7.19482573 10.34094503 -8.48280545 11.55070617 -11 13 C-11.99 12.67 -12.98 12.34 -14 12 C-12.23722805 10.32401988 -10.46575711 8.65940764 -8.6875 7 C-7.93823242 6.28457031 -7.93823242 6.28457031 -7.17382812 5.5546875 C-3.33984375 2 -3.33984375 2 0 2 C0 1.34 0 0.68 0 0 Z " fill="#252525" transform="translate(99,157)"/>
<path d="M0 0 C1.09840119 3.29520358 0.88065929 4.39054817 0.125 7.6875 C-0.83890129 12.12274849 -1.49892244 16.49030196 -2 21 C-2.33 21 -2.66 21 -3 21 C-3 16.71 -3 12.42 -3 8 C-3.66 8 -4.32 8 -5 8 C-3.375 2.25 -3.375 2.25 0 0 Z " fill="#2C2C2C" transform="translate(127,159)"/>
<path d="M0 0 C2.25170312 2.25170312 2.51474 3.32987578 3.1875 6.375 C3.45626953 7.53128906 3.45626953 7.53128906 3.73046875 8.7109375 C4.01304909 11.11082272 3.73503321 12.71670535 3 15 C0.8244694 12.8244694 0.28120447 11.44026108 -0.6875 8.5625 C-1.09548828 7.38880859 -1.09548828 7.38880859 -1.51171875 6.19140625 C-2 4 -2 4 -1 1 C-0.67 0.67 -0.34 0.34 0 0 Z " fill="#363636" transform="translate(320,212)"/>
<path d="M0 0 C0.66 0.33 1.32 0.66 2 1 C2 3.31 2 5.62 2 8 C1.34 8 0.68 8 0 8 C0 9.32 0 10.64 0 12 C-0.66 12 -1.32 12 -2 12 C-2.28571429 3.42857143 -2.28571429 3.42857143 0 0 Z " fill="#131313" transform="translate(39,169)"/>
<path d="M0 0 C1.98 0 3.96 0 6 0 C6 0.99 6 1.98 6 3 C5.01 3.495 5.01 3.495 4 4 C3.34 3.34 2.68 2.68 2 2 C0.87187697 3.10097568 -0.25237811 4.20591556 -1.375 5.3125 C-2.00148438 5.92738281 -2.62796875 6.54226562 -3.2734375 7.17578125 C-5.18086607 9.08812528 -5.18086607 9.08812528 -7 12 C-7.375 9.8125 -7.375 9.8125 -7 7 C-4.0625 4.3125 -4.0625 4.3125 -1 2 C-0.67 1.34 -0.34 0.68 0 0 Z " fill="#CDCDCD" transform="translate(306,201)"/>
<path d="M0 0 C0.33 0 0.66 0 1 0 C2.5912689 4.873261 3.21192221 8.80790596 3 14 C0.13546142 10.58983503 -1.34703566 7.09305456 -3 3 C-2.34 3 -1.68 3 -1 3 C-0.67 2.01 -0.34 1.02 0 0 Z " fill="#1A1A1A" transform="translate(317,201)"/>
<path d="M0 0 C-0.50298788 4.40114397 -2.08772731 6.71195019 -5 10 C-5 9.34 -5 8.68 -5 8 C-5.66 8 -6.32 8 -7 8 C-4.18918919 0 -4.18918919 0 0 0 Z " fill="#2A2A2A" transform="translate(257,151)"/>
<path d="M0 0 C0.7425 0.2475 1.485 0.495 2.25 0.75 C1.92 2.4 1.59 4.05 1.25 5.75 C0.92 4.76 0.59 3.77 0.25 2.75 C-2.72 5.225 -2.72 5.225 -5.75 7.75 C-6.5 6 -6.5 6 -6.75 3.75 C-4.62771652 0.72982736 -3.76812267 -0.34255661 0 0 Z " fill="#D9D9D9" transform="translate(256.75,148.25)"/>
<path d="M0 0 C3.63 0.33 7.26 0.66 11 1 C11 1.33 11 1.66 11 2 C8.69 2 6.38 2 4 2 C4 2.66 4 3.32 4 4 C4.66 4.33 5.32 4.66 6 5 C3.69 5 1.38 5 -1 5 C-0.67 3.35 -0.34 1.7 0 0 Z " fill="#313131" transform="translate(162,164)"/>
<path d="M0 0 C1.32 0 2.64 0 4 0 C4 2.64 4 5.28 4 8 C3.01 8 2.02 8 1 8 C-0.35439668 5.29120665 -0.06501451 2.99066732 0 0 Z " fill="#070707" transform="translate(174,155)"/>
<path d="M0 0 C0.33 0 0.66 0 1 0 C1.42501659 4.67518253 -0.14264011 7.76521945 -2 12 C-2.39764263 13.98821313 -2.75455166 15.98732362 -3 18 C-3.33 18 -3.66 18 -4 18 C-4 13.71 -4 9.42 -4 5 C-2.68 4.67 -1.36 4.34 0 4 C0 2.68 0 1.36 0 0 Z " fill="#C2C2C2" transform="translate(296,187)"/>
<path d="M0 0 C0.99 0.66 1.98 1.32 3 2 C2.0479279 3.00596297 1.08812654 4.00461563 0.125 5 C-0.40867187 5.556875 -0.94234375 6.11375 -1.4921875 6.6875 C-3 8 -3 8 -5 8 C-5 6.35 -5 4.7 -5 3 C-4.360625 2.690625 -3.72125 2.38125 -3.0625 2.0625 C-1.06389179 1.1654837 -1.06389179 1.1654837 0 0 Z " fill="#E1E1E1" transform="translate(80,171)"/>
<path d="M0 0 C0.33 0 0.66 0 1 0 C1.07347656 1.17369141 1.07347656 1.17369141 1.1484375 2.37109375 C1.22320312 3.38300781 1.29796875 4.39492187 1.375 5.4375 C1.44460937 6.44683594 1.51421875 7.45617187 1.5859375 8.49609375 C1.72257813 9.32238281 1.85921875 10.14867187 2 11 C2.66 11.33 3.32 11.66 4 12 C2.68 12 1.36 12 0 12 C0 13.65 0 15.3 0 17 C-0.33 17 -0.66 17 -1 17 C-0.67 11.39 -0.34 5.78 0 0 Z " fill="#2B2B2B" transform="translate(196,203)"/>
<path d="M0 0 C4 5 4 5 8 10 C7.67 10.66 7.34 11.32 7 12 C4.36 9.03 1.72 6.06 -1 3 C-0.67 2.01 -0.34 1.02 0 0 Z " fill="#363636" transform="translate(90,203)"/>
<path d="M0 0 C0.33 0.99 0.66 1.98 1 3 C2.98 2.34 4.96 1.68 7 1 C6.40072174 4.35595828 5.15377564 6.37801226 3 9 C2.67 8.01 2.34 7.02 2 6 C1.01 5.34 0.02 4.68 -1 4 C-0.67 2.68 -0.34 1.36 0 0 Z " fill="#2B2B2B" transform="translate(74,176)"/>
<path d="M0 0 C0.66 0 1.32 0 2 0 C1.88610125 1.79240663 1.75852313 3.58394835 1.625 5.375 C1.52058594 6.87160156 1.52058594 6.87160156 1.4140625 8.3984375 C1 11 1 11 -1 13 C-1.02686553 11.02090602 -1.04633375 9.04171029 -1.0625 7.0625 C-1.07410156 5.96035156 -1.08570313 4.85820312 -1.09765625 3.72265625 C-1 1 -1 1 0 0 Z " fill="#090909" transform="translate(175,168)"/>
<path d="M0 0 C1.98 0.66 3.96 1.32 6 2 C3.45543849 4.96865509 0.51005335 6.3619751 -3 8 C-1.125 1.125 -1.125 1.125 0 0 Z " fill="#D5D5D5" transform="translate(129,159)"/>
<path d="M0 0 C0.66 0.66 1.32 1.32 2 2 C0.5625 4.5 0.5625 4.5 -2 7 C-5.04256578 7.4451258 -7.9465865 7.29359745 -11 7 C-11 6.01 -11 5.02 -11 4 C-9.906875 4.20625 -8.81375 4.4125 -7.6875 4.625 C-3.9161599 5.40346525 -3.9161599 5.40346525 -1 3 C-0.67 2.01 -0.34 1.02 0 0 Z " fill="#393939" transform="translate(53,215)"/>
<path d="M0 0 C0.66 0.33 1.32 0.66 2 1 C2 4.3 2 7.6 2 11 C1.34 11 0.68 11 0 11 C-1.76062164 7.67438135 -2.10784228 6.40826005 -1.125 2.6875 C-0.568125 1.3571875 -0.568125 1.3571875 0 0 Z " fill="#2C2C2C" transform="translate(56,165)"/>
<path d="M0 0 C0.66 0 1.32 0 2 0 C3.125 5.75 3.125 5.75 2 8 C1.01 7.67 0.02 7.34 -1 7 C-1.33 5.35 -1.66 3.7 -2 2 C-1.34 2 -0.68 2 0 2 C0 1.34 0 0.68 0 0 Z " fill="#D8D8D8" transform="translate(96,161)"/>
<path d="M0 0 C0.33 0 0.66 0 1 0 C1 4.62 1 9.24 1 14 C0.34 14 -0.32 14 -1 14 C-2.59789351 9.04653013 -1.28306814 4.86717585 0 0 Z " fill="#373737" transform="translate(239,215)"/>
<path d="M0 0 C0.66 0 1.32 0 2 0 C2.33 1.98 2.66 3.96 3 6 C2.01 6 1.02 6 0 6 C-0.33 7.32 -0.66 8.64 -1 10 C-1.125 3.375 -1.125 3.375 0 0 Z " fill="#CBCBCB" transform="translate(303,170)"/>
<path d="M0 0 C2.31 0.33 4.62 0.66 7 1 C7 1.99 7 2.98 7 4 C5.02 4 3.04 4 1 4 C0.67 2.68 0.34 1.36 0 0 Z " fill="#1D1D1D" transform="translate(181,213)"/>
<path d="M0 0 C0.33 0 0.66 0 1 0 C2.10228696 4.40914783 2.07654536 8.48382401 2 13 C1.67 13 1.34 13 1 13 C0.814375 11.88625 0.814375 11.88625 0.625 10.75 C0.14661689 8.02053995 0.14661689 8.02053995 -1.1875 5.9375 C-2 4 -2 4 -1.125 1.75 C-0.75375 1.1725 -0.3825 0.595 0 0 Z " fill="#C5C5C5" transform="translate(329,189)"/>
<path d="M0 0 C0.33 0.99 0.66 1.98 1 3 C2.65 3 4.3 3 6 3 C4.68 3.33 3.36 3.66 2 4 C2 5.65 2 7.3 2 9 C1.67 8.34 1.34 7.68 1 7 C0.34 6.67 -0.32 6.34 -1 6 C-1 5.01 -1 4.02 -1 3 C-1.66 2.34 -2.32 1.68 -3 1 C-2.01 0.67 -1.02 0.34 0 0 Z " fill="#E0E0E0" transform="translate(347,175)"/>
<path d="M0 0 C2.4375 0.625 2.4375 0.625 5 2 C5.8125 5.125 5.8125 5.125 6 8 C1.125 3.375 1.125 3.375 0 0 Z " fill="#1A1A1A" transform="translate(84,197)"/>
<path d="M0 0 C0.33 0 0.66 0 1 0 C1.33 2.64 1.66 5.28 2 8 C-2.75 7.25 -2.75 7.25 -5 5 C-3.35 5 -1.7 5 0 5 C0 3.35 0 1.7 0 0 Z " fill="#C2C2C2" transform="translate(308,187)"/>
<path d="M0 0 C0.99 0 1.98 0 3 0 C3 2.31 3 4.62 3 7 C2.01 7 1.02 7 0 7 C-0.38133299 5.0085944 -0.71325582 3.00720923 -1 1 C-0.67 0.67 -0.34 0.34 0 0 Z " fill="#060606" transform="translate(53,164)"/>
<path d="M0 0 C0.598125 0.185625 1.19625 0.37125 1.8125 0.5625 C4.16408762 1.22093687 4.16408762 1.22093687 7 0 C7.66 0.99 8.32 1.98 9 3 C5.52176885 4.15941038 3.54104422 3.70820884 0 3 C0 2.01 0 1.02 0 0 Z " fill="#F2F2F2" transform="translate(316,192)"/>
<path d="M0 0 C0.33 0 0.66 0 1 0 C1.92470553 4.71599818 2.22923777 7.67265609 0 12 C-0.33 12 -0.66 12 -1 12 C-1.14285714 3.42857143 -1.14285714 3.42857143 0 0 Z " fill="#C3C3C3" transform="translate(203,168)"/>
<path d="M0 0 C0.66 0.66 1.32 1.32 2 2 C0.824375 2.928125 0.824375 2.928125 -0.375 3.875 C-2.96837647 5.89858661 -2.96837647 5.89858661 -5 8 C-4.64950425 4.75791433 -4.43778819 3.38472296 -1.9375 1.1875 C-1.298125 0.795625 -0.65875 0.40375 0 0 Z " fill="#DBDBDB" transform="translate(89,163)"/>
<path d="M0 0 C0.99 0.33 1.98 0.66 3 1 C-1.39453125 5.00390625 -1.39453125 5.00390625 -3 6 C-3.99 5.67 -4.98 5.34 -6 5 C-1.60546875 0.99609375 -1.60546875 0.99609375 0 0 Z " fill="#3B3B3B" transform="translate(91,164)"/>
<path d="M0 0 C1.32 1.32 2.64 2.64 4 4 C3.67 4.66 3.34 5.32 3 6 C1.0625 5.625 1.0625 5.625 -1 5 C-1.33 4.34 -1.66 3.68 -2 3 C-1.34 3 -0.68 3 0 3 C0 2.01 0 1.02 0 0 Z " fill="#292929" transform="translate(83,192)"/>
<path d="M0 0 C1.60031344 3.20062687 0.03173691 5.72271806 -1 9 C-3.1519437 5.77208445 -3.20086443 4.71599191 -3 1 C-2.01 0.67 -1.02 0.34 0 0 Z " fill="#AFAFAF" transform="translate(332,179)"/>
<path d="M0 0 C1.32 0 2.64 0 4 0 C3.67 1.65 3.34 3.3 3 5 C2.01 5 1.02 5 0 5 C0 3.35 0 1.7 0 0 Z " fill="#CFCFCF" transform="translate(96,221)"/>
<path d="M0 0 C2.97 0.33 5.94 0.66 9 1 C8.67 1.66 8.34 2.32 8 3 C5.6568787 2.74438677 3.32156597 2.40729228 1 2 C0.67 1.34 0.34 0.68 0 0 Z " fill="#D1D1D1" transform="translate(41,218)"/>
<path d="M0 0 C0.66 0 1.32 0 2 0 C2 1.98 2 3.96 2 6 C1.01 6 0.02 6 -1 6 C-1.33 4.35 -1.66 2.7 -2 1 C-1.34 1 -0.68 1 0 1 C0 0.67 0 0.34 0 0 Z " fill="#DCDCDC" transform="translate(97,212)"/>
<path d="M0 0 C0.99 0.66 1.98 1.32 3 2 C2.34 3.32 1.68 4.64 1 6 C0.01 5.67 -0.98 5.34 -2 5 C-1.34 3.35 -0.68 1.7 0 0 Z " fill="#E0E0E0" transform="translate(356,210)"/>
<path d="M0 0 C0.99 0 1.98 0 3 0 C2.67 0.99 2.34 1.98 2 3 C-0.8125 3.625 -0.8125 3.625 -4 4 C-4.99 3.34 -5.98 2.68 -7 2 C-5.02 2 -3.04 2 -1 2 C-0.67 1.34 -0.34 0.68 0 0 Z " fill="#C5C5C5" transform="translate(188,210)"/>
<path d="M0 0 C0.33 0.66 0.66 1.32 1 2 C1.66 2 2.32 2 3 2 C2 4 2 4 -1.0625 5.125 C-2.031875 5.41375 -3.00125 5.7025 -4 6 C-2.68 4.02 -1.36 2.04 0 0 Z " fill="#E6E6E6" transform="translate(84,175)"/>
<path d="M0 0 C0.99 0.33 1.98 0.66 3 1 C3 2.65 3 4.3 3 6 C2.34 5.34 1.68 4.68 1 4 C0.67 4.66 0.34 5.32 0 6 C-0.66 5.67 -1.32 5.34 -2 5 C-1.34 3.35 -0.68 1.7 0 0 Z " fill="#232323" transform="translate(247,164)"/>
<path d="M0 0 C1.134375 0.020625 2.26875 0.04125 3.4375 0.0625 C3.4375 0.7225 3.4375 1.3825 3.4375 2.0625 C0.5625 2.6875 0.5625 2.6875 -2.5625 3.0625 C-3.2225 2.4025 -3.8825 1.7425 -4.5625 1.0625 C-3.5625 0.0625 -3.5625 0.0625 0 0 Z " fill="#030303" transform="translate(155.5625,153.9375)"/>
</svg>
